<svg width="19" height="18" viewBox="0 0 19 18" fill="none" xmlns="http://www.w3.org/2000/svg">
<path d="M11.75 6.75C12.3467 6.75 12.919 6.98705 13.341 7.40901C13.7629 7.83097 14 8.40326 14 9C14 9.59674 13.7629 10.169 13.341 10.591C12.919 11.0129 12.3467 11.25 11.75 11.25C11.1533 11.25 10.581 11.0129 10.159 10.591C9.73705 10.169 9.5 9.59674 9.5 9C9.5 8.40326 9.73705 7.83097 10.159 7.40901C10.581 6.98705 11.1533 6.75 11.75 6.75ZM11.75 6.75C12.3467 6.75 12.919 6.51295 13.341 6.09099C13.7629 5.66903 14 5.09674 14 4.5C14 3.90326 13.7629 3.33097 13.341 2.90901C12.919 2.48705 12.3467 2.25 11.75 2.25H7.25C6.65326 2.25 6.08097 2.48705 5.65901 2.90901C5.23705 3.33097 5 3.90326 5 4.5C5 5.09674 5.23705 5.66903 5.65901 6.09099C6.08097 6.51295 6.65326 6.75 7.25 6.75M11.75 6.75H7.25M7.25 6.75C6.65326 6.75 6.08097 6.98705 5.65901 7.40901C5.23705 7.83097 5 8.40326 5 9C5 9.59674 5.23705 10.169 5.65901 10.591C6.08097 11.0129 6.65326 11.25 7.25 11.25M7.25 11.25H9.5M7.25 11.25C6.80499 11.25 6.36998 11.382 5.99997 11.6292C5.62996 11.8764 5.34157 12.2278 5.17127 12.639C5.00097 13.0501 4.95642 13.5025 5.04323 13.939C5.13005 14.3754 5.34434 14.7763 5.65901 15.091C5.97368 15.4057 6.37459 15.62 6.81105 15.7068C7.24751 15.7936 7.6999 15.749 8.11104 15.5787C8.52217 15.4084 8.87357 15.12 9.12081 14.75C9.36804 14.38 9.5 13.945 9.5 13.5V2.25" stroke="#F24E1E" stroke-width="1.5" stroke-linecap="round" stroke-linejoin="round"/>
</svg>
