<svg width="18" height="18" viewBox="0 0 18 18" fill="none" xmlns="http://www.w3.org/2000/svg">
<g clip-path="url(#clip0_1225_1028)">
<path d="M14.8861 1.22698C14.8066 1.21498 14.7151 1.30723 14.6431 1.52473C14.5254 1.87723 13.8384 3.92698 10.5151 4.76923C10.9621 5.15323 11.2471 5.70073 11.2471 6.31348C11.2471 7.47373 10.2391 8.41348 8.99713 8.41348C7.75588 8.41348 6.74938 7.47298 6.74863 6.31348C6.74863 5.86123 6.90463 5.44498 7.16488 5.10148C4.81363 4.85998 3.79738 2.75923 3.79738 2.75923L3.72538 5.88148C3.70663 6.30448 3.71863 6.71473 3.52288 7.10848C3.51055 7.09037 3.49804 7.07237 3.48538 7.05448C3.20952 6.67062 2.86239 6.35036 2.48421 6.1308C2.10604 5.91125 1.7123 5.8014 1.34863 5.81398C1.06218 5.82388 0.802613 5.90946 0.588876 6.06448C0.207781 6.34024 -0.00402101 6.81872 5.78385e-05 7.39468C0.00413668 7.97064 0.223762 8.59691 0.610626 9.13573C0.931029 9.58167 1.3463 9.94004 1.79238 10.1556C2.23846 10.3711 2.69054 10.4318 3.07888 10.3282C5.32663 11.9932 9.44038 13.4392 12.2521 11.742L10.7334 10.5202C9.93538 10.779 8.78038 10.7752 7.43563 10.299C9.61063 10.7355 10.7881 10.2592 11.4361 9.75748C11.2651 9.53548 10.9036 9.36298 10.9036 9.36298C10.9036 9.36298 11.3259 9.44323 11.6011 9.73498C11.7114 9.85123 11.7496 10.0252 11.7646 10.2247C12.1794 10.4482 12.6519 10.7167 13.1709 11.0212C14.7159 9.47623 15.6106 6.57148 15.0609 1.55848C15.0346 1.35673 14.9656 1.23973 14.8861 1.22698ZM5.14138 5.32198C5.92963 5.32123 6.56863 5.91823 6.56863 6.65473C6.56863 7.38973 5.92888 7.98673 5.14138 7.98598C4.35388 7.98598 3.71638 7.38973 3.71638 6.65473C3.71638 5.91898 4.35388 5.32198 5.14138 5.32123V5.32198ZM9.47338 5.68348C9.34287 5.68339 9.21363 5.70899 9.09303 5.75884C8.97242 5.80869 8.86282 5.88181 8.77047 5.97402C8.67812 6.06623 8.60484 6.17572 8.55481 6.29625C8.50478 6.41678 8.47897 6.54598 8.47888 6.67648C8.47878 6.80699 8.50438 6.93623 8.55423 7.05683C8.60408 7.17744 8.6772 7.28704 8.76941 7.37939C8.86162 7.47174 8.97111 7.54502 9.09164 7.59505C9.21217 7.64508 9.34137 7.67089 9.47188 7.67098C9.73543 7.67118 9.98828 7.56668 10.1748 7.38045C10.3613 7.19423 10.4662 6.94154 10.4664 6.67798C10.4666 6.41443 10.3621 6.16158 10.1758 5.97508C9.98962 5.78857 9.73693 5.68368 9.47338 5.68348ZM1.26688 6.16273C1.26738 6.16273 1.26788 6.16273 1.26838 6.16273C1.27363 6.16268 1.27888 6.16268 1.28413 6.16273C1.37926 6.16264 1.47349 6.18099 1.56139 6.21673C1.64929 6.25247 1.72915 6.30491 1.79639 6.37103C1.86363 6.43715 1.91692 6.51566 1.95321 6.60205C1.9895 6.68844 2.00808 6.78102 2.00788 6.87448C2.00788 6.96782 1.98915 7.06024 1.95277 7.14646C1.91639 7.23267 1.86307 7.311 1.79585 7.37697C1.72863 7.44293 1.64884 7.49523 1.56104 7.53088C1.47323 7.56653 1.37914 7.58483 1.28413 7.58473C1.09263 7.58434 0.909122 7.50934 0.773857 7.37619C0.638593 7.24303 0.562626 7.0626 0.562626 6.87448C0.561969 6.68875 0.6354 6.51015 0.767183 6.37697C0.898966 6.24378 1.07861 6.16661 1.26763 6.16198L1.26688 6.16273ZM5.43613 6.25498C5.35339 6.25597 5.27166 6.27324 5.19561 6.30581C5.11955 6.33838 5.05065 6.38561 4.99285 6.44481C4.93504 6.50401 4.88946 6.57401 4.85871 6.65082C4.82796 6.72763 4.81264 6.80975 4.81363 6.89248C4.81461 6.97522 4.83188 7.05695 4.86445 7.133C4.89702 7.20906 4.94426 7.27796 5.00345 7.33576C5.06265 7.39357 5.13265 7.43915 5.20946 7.4699C5.28628 7.50065 5.36839 7.51597 5.45113 7.51498C5.61821 7.513 5.77767 7.44471 5.89441 7.32516C6.01115 7.2056 6.07561 7.04457 6.07363 6.87748C6.07164 6.7104 6.00335 6.55095 5.8838 6.4342C5.76425 6.31746 5.60321 6.253 5.43613 6.25498ZM11.6311 9.97798C11.5989 10.0177 11.5539 10.0522 11.5141 10.0882L11.6716 10.1745C11.6589 10.0995 11.6469 10.017 11.6311 9.97798ZM11.2186 10.053L10.6689 10.3237L10.7139 10.3612L10.8624 10.479L12.3579 11.6835L12.3691 11.6925C12.8514 12.0781 13.3394 12.4564 13.8331 12.8272C13.8274 12.8586 13.8254 12.8906 13.8271 12.9225L14.0221 12.8925L14.0994 13.0065L15.8371 14.1105C15.7471 14.418 15.7884 14.8252 15.9924 15.2032C16.5849 16.302 18.0001 16.7737 18.0001 16.7737C17.4219 15.2977 17.8434 14.097 16.7026 13.674C16.5211 13.6065 16.3629 13.6042 16.2309 13.6492L14.6956 12.228L14.5651 12.189L14.5464 11.9925C14.5152 12.0048 14.4852 12.0196 14.4564 12.0367C14.2269 11.8417 13.9411 11.634 13.6389 11.4255C12.6159 10.7992 11.9461 10.4505 11.2179 10.053H11.2186Z" fill="#5C5543"/>
</g>
<defs>
<clipPath id="clip0_1225_1028">
<rect width="18" height="18" fill="white"/>
</clipPath>
</defs>
</svg>
