<svg width="18" height="18" viewBox="0 0 18 18" fill="none" xmlns="http://www.w3.org/2000/svg">
<g clip-path="url(#clip0_1225_1008)">
<path d="M17.6595 8.19744L9.80025 0.338943C9.34725 -0.113307 8.61375 -0.113307 8.15925 0.338943L6.531 1.97019L8.601 4.04019C9.08475 3.87894 9.63525 3.98769 10.0178 4.37094C10.4048 4.75719 10.5113 5.31444 10.3463 5.79594L12.3397 7.79094C12.8235 7.62369 13.38 7.73244 13.7648 8.11719C14.3055 8.65719 14.3055 9.53019 13.7648 10.0702C13.2255 10.6094 12.354 10.6094 11.8148 10.0702C11.4105 9.66444 11.3092 9.06744 11.5117 8.57319L9.645 6.71619V11.6099C9.777 11.6744 9.9015 11.7622 10.011 11.8709C10.5457 12.4117 10.5457 13.2832 10.011 13.8209C9.47175 14.3617 8.59425 14.3617 8.05425 13.8209C7.515 13.2817 7.515 12.4117 8.05425 11.8724C8.19075 11.7374 8.3445 11.6354 8.508 11.5679V6.62619C8.34525 6.55794 8.19 6.45969 8.058 6.32544C7.64925 5.91669 7.551 5.31894 7.761 4.81869L5.727 2.77494L0.3375 8.16069C-0.1125 8.61444 -0.1125 9.34869 0.3375 9.80244L8.1975 17.6602C8.6505 18.1132 9.384 18.1132 9.837 17.6602L17.6595 9.83769C18.1132 9.38544 18.1132 8.65119 17.6595 8.19744Z" fill="#F05032"/>
</g>
<defs>
<clipPath id="clip0_1225_1008">
<rect width="18" height="18" fill="white"/>
</clipPath>
</defs>
</svg>
