<svg width="18" height="18" viewBox="0 0 18 18" fill="none" xmlns="http://www.w3.org/2000/svg">
<g clip-path="url(#clip0_1225_1032)">
<path d="M6.54502 1.16553L8.59027 4.41603V16.8345H9.40852V4.41678L11.4545 1.16553H6.54502ZM2.04502 4.87653V7.35003H7.36327C7.36552 6.72753 7.36327 6.09603 7.35877 5.47653C7.35877 5.18928 7.09177 4.92753 6.82027 4.87653H2.04502ZM11.2723 4.87728C10.9708 4.89528 10.646 5.18478 10.6468 5.50503L10.6363 14.9693C10.6363 15.3968 11.2115 15.768 11.5415 15.5145L17.7515 10.7663C18.0823 10.515 18.0815 9.92628 17.7515 9.67503L11.5528 4.95978C11.4724 4.89914 11.3727 4.86982 11.2723 4.87728ZM-0.000976562 9.00003V11.4743H7.36252V9.00003H-0.000976562ZM3.27127 13.1228V15.5978H7.36252V13.1228H3.27127Z" fill="#527EB2"/>
</g>
<defs>
<clipPath id="clip0_1225_1032">
<rect width="18" height="18" fill="white"/>
</clipPath>
</defs>
</svg>
