<svg width="19" height="18" viewBox="0 0 19 18" fill="none" xmlns="http://www.w3.org/2000/svg">
<g clip-path="url(#clip0_1225_1012)">
<path d="M17.2025 14.5387H1.7975C1.62711 14.5387 1.45839 14.5051 1.30097 14.4399C1.14355 14.3747 1.00051 14.2791 0.880029 14.1587C0.759545 14.0382 0.663972 13.8951 0.598766 13.7377C0.533561 13.5803 0.5 13.4116 0.5 13.2412V4.75868C0.5 4.41456 0.636701 4.08454 0.880029 3.84121C1.12336 3.59788 1.45338 3.46118 1.7975 3.46118H17.2025C17.3729 3.46118 17.5416 3.49474 17.699 3.55995C17.8565 3.62515 17.9995 3.72073 18.12 3.84121C18.2405 3.96169 18.336 4.10473 18.4012 4.26215C18.4664 4.41957 18.5 4.58829 18.5 4.75868V13.2397C18.5001 13.4101 18.4666 13.5789 18.4014 13.7364C18.3363 13.894 18.2407 14.0371 18.1202 14.1576C17.9997 14.2782 17.8567 14.3738 17.6992 14.4391C17.5417 14.5043 17.373 14.5387 17.2025 14.5387ZM4.82675 11.9422V8.56718L6.55775 10.7309L8.288 8.56718V11.9422H10.019V6.05843H8.288L6.55775 8.22218L4.82675 6.05843H3.095V11.9437L4.82675 11.9422ZM16.424 8.99993H14.6923V6.05768H12.962V8.99993H11.231L13.8267 12.0292L16.424 8.99993Z" fill="black"/>
</g>
<defs>
<clipPath id="clip0_1225_1012">
<rect width="18" height="18" fill="white" transform="translate(0.5)"/>
</clipPath>
</defs>
</svg>
