<svg width="19" height="18" viewBox="0 0 19 18" fill="none" xmlns="http://www.w3.org/2000/svg">
<g clip-path="url(#clip0_1225_1004)">
<path d="M9.5 0C14.4702 0 18.5 4.02975 18.5 9C18.5 13.9702 14.4702 18 9.5 18C4.52975 18 0.5 13.9702 0.5 9C0.5 4.02975 4.52975 0 9.5 0ZM7.71125 11.9985C7.8425 12.4823 7.82825 12.9345 7.69325 13.3425L7.6445 13.4775C7.6265 13.5232 7.6055 13.5675 7.586 13.6095C7.481 13.827 7.3415 14.0295 7.16975 14.217C6.64625 14.7862 5.91575 15.0022 5.60225 14.8207C5.26475 14.6242 5.43275 13.8195 6.04025 13.1782C6.6935 12.4897 7.63025 12.0465 7.63025 12.0465V12.0443L7.71125 11.9985ZM15.1445 3.85275C14.738 2.253 12.0868 1.72725 9.578 2.619C8.08625 3.14925 6.47 3.9825 5.30825 5.06925C3.926 6.36 3.70625 7.485 3.797 7.95525C4.11725 9.6135 6.38975 10.698 7.32425 11.5027V11.5073C7.049 11.6423 5.03225 12.654 4.55975 13.701C4.0535 14.8035 4.6385 15.5918 5.021 15.6923C6.20225 16.0193 7.41725 15.4223 8.06975 14.4555C8.69975 13.5098 8.64425 12.2947 8.37275 11.6985C8.74475 11.5972 9.18275 11.5523 9.74525 11.6205C11.321 11.8005 11.636 12.7905 11.5677 13.1955C11.5002 13.5997 11.1755 13.836 11.0623 13.9035C10.9498 13.9718 10.916 13.9935 10.9265 14.0392C10.9378 14.1067 10.9948 14.1068 11.084 14.0955C11.2078 14.073 11.906 13.758 11.9398 12.9922C11.9735 12.0247 11.0503 10.9455 9.4085 10.9673C8.7335 10.9793 8.30525 11.0355 8.00225 11.1592C7.97975 11.1255 7.9565 11.103 7.9235 11.0805C6.911 9.98925 5.03225 9.22425 5.111 7.773C5.1335 7.24425 5.32475 5.85 8.711 4.1625C11.4897 2.778 13.7067 3.16125 14.0892 4.005C14.639 5.208 12.9072 7.4475 10.016 7.773C8.9135 7.89675 8.33975 7.47 8.19275 7.31175C8.036 7.143 8.0135 7.13175 7.95725 7.16625C7.86725 7.21125 7.9235 7.3575 7.95725 7.4475C8.04725 7.6725 8.396 8.06625 9.00425 8.26875C9.53225 8.4375 10.8267 8.538 12.3792 7.93125C14.1222 7.257 15.4835 5.3775 15.0897 3.8025L15.1445 3.85275Z" fill="#CC6699"/>
</g>
<defs>
<clipPath id="clip0_1225_1004">
<rect width="18" height="18" fill="white" transform="translate(0.5)"/>
</clipPath>
</defs>
</svg>
