<svg width="19" height="18" viewBox="0 0 19 18" fill="none" xmlns="http://www.w3.org/2000/svg">
<g clip-path="url(#clip0_1225_1036)">
<path d="M18.5 8.9895H18.4797L15.2413 5.751L18.4685 2.4405V1.09575L17.9818 0.60975H11.8333L11.3383 1.0635V1.84725L9.51125 0.02025V0L9.5 0.0105L9.4895 0V0.02025L8.522 0.9885L8.1185 0.58425H2.02625L1.54775 1.10325V2.517L2.00975 2.979H2.54975V6.9615L0.52025 8.99025H0.5L0.5105 9L0.5 9.0105H0.52025L2.54975 11.04V15.8903L3.23 16.2825H4.9715L6.36425 14.8545L9.48875 17.979V18L9.5 17.9895L9.5105 18V17.979L11.393 16.0972H11.7567C11.84 16.0972 11.915 16.0448 11.9442 15.963L12.0537 15.6435C12.0747 15.5805 12.0628 15.5145 12.026 15.4642L13.1225 14.3677L12.6635 15.8392C12.6313 15.945 12.6905 16.056 12.7963 16.0883C12.815 16.0943 12.8352 16.0972 12.8547 16.0972H14.2228C14.3023 16.0965 14.3735 16.0492 14.405 15.975L14.5287 15.6795C14.5475 15.6308 14.5468 15.576 14.5258 15.5272C14.5055 15.4785 14.4658 15.4403 14.4163 15.4208C14.3945 15.4118 14.3698 15.4065 14.3435 15.4058H14.2872L14.9172 13.4227H15.8412L15.0792 15.8385C15.047 15.9443 15.1062 16.0553 15.2112 16.0875C15.23 16.0935 15.2503 16.0965 15.2705 16.0965H16.772C16.8545 16.0965 16.9273 16.047 16.958 15.969L17.081 15.648C17.1192 15.5445 17.0653 15.4305 16.9625 15.3923C16.9408 15.384 16.9175 15.3795 16.8942 15.3795H16.7855L17.6337 12.6248C17.654 12.5633 17.6427 12.495 17.6045 12.4448L17.3232 12.0668L17.321 12.063C17.2827 12.015 17.2257 11.9865 17.1642 11.9865H16.0873C16.034 11.9865 15.9815 12.009 15.9448 12.0472L15.6448 12.3765H15.1768L15.1453 12.342L18.479 9.00825H18.5L18.4895 9L18.5 8.9895ZM7.8785 15.8542L9.06275 12.4725H8.687L8.90975 12.2445H10.154L8.98175 15.6608H9.449L9.38975 15.8542H7.8785ZM10.6497 10.2173L10.7622 10.3305L10.5605 11.022L10.3918 11.1915H9.665L9.52925 11.0558L9.7625 10.4025L9.9785 10.2173H10.6497ZM4.6925 15.6218H3.40775L3.21125 15.5093V2.31825H2.28425L2.20925 2.24325V1.36125L2.3165 1.24575H7.84475L8.0045 1.40625V2.23725L7.898 2.367H7.08875V8.883L13.694 2.367H12.1295L11.9983 2.226V1.35375L12.089 1.2705H17.7065L17.8055 1.37025V2.17275L10.2343 9.9375H9.9545C9.94325 9.93675 9.9335 9.9375 9.923 9.93825L9.908 9.9405C9.87425 9.948 9.8435 9.963 9.81875 9.9855L9.5615 10.2068L9.5585 10.209C9.53375 10.2323 9.51425 10.2607 9.50375 10.2922L9.28175 10.9148L4.6925 15.6218ZM15.7685 12.6578L16.124 12.2685H17.1245L17.3563 12.5798L16.4075 15.66H16.7772L16.7172 15.8168H15.38L16.223 13.1437H14.7117L13.904 15.687H14.222L14.1672 15.8175H12.9635L13.7938 13.1565H12.2217L11.4253 15.6608H11.7523L11.6982 15.8175H10.4525L11.588 12.4725H11.1485L11.2167 12.2692H12.4543L12.8435 12.672H13.523L13.8912 12.2565H14.687L15.0538 12.6578H15.7685Z" fill="#019733"/>
</g>
<defs>
<clipPath id="clip0_1225_1036">
<rect width="18" height="18" fill="white" transform="translate(0.5)"/>
</clipPath>
</defs>
</svg>
