<svg width="1920" height="105" viewBox="0 0 1920 105" fill="none" xmlns="http://www.w3.org/2000/svg">
<path d="M63.1 45.5L35.9833 70.6969C15.1712 90.0356 -17.0379 90.0356 -37.85 70.6969L-68.2877 42.4141C-91.3981 20.9398 -129 37.3293 -129 68.8767C-129 88.8271 -112.827 105 -92.8767 105H1920.07C1965.79 105 1987.81 48.9479 1954.32 17.8251C1935.01 -0.116637 1905.13 -0.116658 1885.82 17.8251L1856.03 45.5C1819.93 79.0437 1764.07 79.0438 1727.97 45.5C1691.87 11.9563 1636 11.9563 1599.9 45.5C1563.8 79.0438 1507.93 79.0437 1471.83 45.5C1435.73 11.9563 1379.87 11.9563 1343.77 45.5C1307.67 79.0438 1251.8 79.0438 1215.7 45.5C1179.6 11.9563 1123.73 11.9563 1087.63 45.5C1051.53 79.0438 995.666 79.0438 959.567 45.5C923.467 11.9563 867.599 11.9563 831.5 45.5C795.4 79.0438 739.533 79.0438 703.433 45.5C667.334 11.9563 611.466 11.9563 575.367 45.5C539.267 79.0438 483.399 79.0437 447.3 45.5C411.2 11.9563 355.333 11.9563 319.233 45.5C283.134 79.0438 227.266 79.0437 191.167 45.5C155.067 11.9563 99.1995 11.9562 63.1 45.5Z" fill="white" stroke="white" stroke-width="8"/>
</svg>
