<svg width="24" height="24" viewBox="0 0 24 24" fill="none" xmlns="http://www.w3.org/2000/svg">
<g clip-path="url(#clip0_1230_586)">
<path d="M20.9274 7.19261C20.6501 5.17698 18.854 3.58852 16.7248 3.28072C16.3655 3.22871 15.0045 3.03943 11.8516 3.03943H11.8281C8.6744 3.03943 7.9978 3.22871 7.63858 3.28072C5.56865 3.58 3.67835 5.0073 3.21972 7.04679C2.99913 8.05119 2.97559 9.16474 3.01657 10.1862C3.07499 11.651 3.08632 13.1133 3.22234 14.5721C3.31637 15.5412 3.48041 16.5025 3.71323 17.4489C4.14918 19.1968 5.91393 20.6514 7.64293 21.2448C9.49408 21.8637 11.4848 21.9664 13.3923 21.5416C13.6021 21.4938 13.8097 21.4384 14.0149 21.3753C14.4778 21.2312 15.0211 21.07 15.4204 20.787C15.4259 20.783 15.4304 20.7779 15.4335 20.772C15.4367 20.7661 15.4385 20.7595 15.4387 20.7529V19.3392C15.4386 19.333 15.4371 19.3268 15.4343 19.3213C15.4314 19.3157 15.4273 19.3108 15.4223 19.307C15.4173 19.3031 15.4115 19.3004 15.4053 19.299C15.399 19.2977 15.3926 19.2977 15.3864 19.2991C14.1643 19.5846 12.9119 19.7277 11.6555 19.7254C9.49314 19.7254 8.91157 18.7219 8.74502 18.3041C8.61116 17.943 8.52615 17.5664 8.49216 17.1837C8.49182 17.1773 8.49304 17.1709 8.49569 17.165C8.49834 17.1591 8.50241 17.1539 8.50749 17.1499C8.5126 17.1458 8.51861 17.143 8.52503 17.1416C8.53145 17.1402 8.53811 17.1404 8.54449 17.142C9.74623 17.4255 10.9781 17.5686 12.2144 17.5683C12.5117 17.5683 12.8081 17.5683 13.1055 17.5606C14.3488 17.5265 15.6593 17.4643 16.8826 17.2306C16.9131 17.2247 16.9436 17.2196 16.9698 17.2119C18.8993 16.8495 20.7355 15.7121 20.9221 12.8319C20.9291 12.7185 20.9466 11.6442 20.9466 11.5265C20.9474 11.1266 21.0782 8.68983 20.9274 7.19261ZM17.9576 14.3794H15.9287V9.51943C15.9287 8.49627 15.4928 7.97447 14.606 7.97447C13.6312 7.97447 13.143 8.59178 13.143 9.81102V12.4712H11.1262V9.81102C11.1262 8.59178 10.6371 7.97447 9.66229 7.97447C8.78077 7.97447 8.34045 8.49627 8.33958 9.51943V14.3794H6.31239V9.37193C6.31239 8.34877 6.57949 7.53593 7.11368 6.93339C7.66472 6.33229 8.38755 6.02365 9.28475 6.02365C10.3232 6.02365 11.1079 6.41414 11.631 7.19432L12.1359 8.02308L12.6416 7.19432C13.1647 6.41414 13.9495 6.02365 14.9862 6.02365C15.8825 6.02365 16.6053 6.33229 17.1581 6.93339C17.6923 7.53535 17.9594 8.34819 17.9594 9.37193L17.9576 14.3794Z" fill="#171823"/>
</g>
<defs>
<clipPath id="clip0_1230_586">
<rect width="18" height="19" fill="white" transform="translate(3 3)"/>
</clipPath>
</defs>
</svg>
