<svg width="24" height="24" viewBox="0 0 24 24" fill="none" xmlns="http://www.w3.org/2000/svg">
<g clip-path="url(#clip0_1230_520)">
<path d="M0.632 0.55V23.45H2.28V24H0V0H2.28V0.55H0.632ZM7.675 7.81V8.967H7.708C8.017 8.524 8.391 8.183 8.825 7.943C9.258 7.698 9.761 7.578 10.325 7.578C10.865 7.578 11.358 7.685 11.806 7.892C12.254 8.1 12.591 8.474 12.826 9C13.08 8.626 13.426 8.294 13.86 8.008C14.294 7.721 14.81 7.578 15.406 7.578C15.859 7.578 16.278 7.634 16.666 7.745C17.054 7.855 17.382 8.031 17.659 8.275C17.935 8.52 18.148 8.834 18.305 9.226C18.457 9.618 18.535 10.089 18.535 10.643V16.371H16.186V11.52C16.186 11.234 16.176 10.961 16.154 10.708C16.1379 10.4783 16.0767 10.2541 15.974 10.048C15.8742 9.85957 15.7221 9.70399 15.536 9.6C15.342 9.49 15.079 9.434 14.751 9.434C14.419 9.434 14.151 9.498 13.948 9.623C13.7482 9.74584 13.583 9.91758 13.468 10.122C13.3476 10.3373 13.2692 10.5735 13.237 10.818C13.1985 11.0779 13.1784 11.3402 13.177 11.603V16.371H10.827V11.571C10.827 11.317 10.823 11.068 10.809 10.819C10.8008 10.5832 10.7525 10.3505 10.666 10.131C10.5844 9.92361 10.4391 9.74748 10.251 9.628C10.057 9.503 9.775 9.438 9.397 9.438C9.286 9.438 9.138 9.462 8.958 9.512C8.778 9.563 8.598 9.655 8.428 9.794C8.257 9.932 8.109 10.131 7.989 10.389C7.869 10.648 7.809 10.989 7.809 11.409V16.375H5.46V7.81H7.675ZM23.368 23.45V0.55H21.72V0H24V24H21.72V23.45H23.368Z" fill="#171823"/>
</g>
<defs>
<clipPath id="clip0_1230_520">
<rect width="24" height="24" fill="white"/>
</clipPath>
</defs>
</svg>
